<svg xmlns:dc="http://purl.org/dc/elements/1.1/" xmlns:cc="http://creativecommons.org/ns#" xmlns:rdf="http://www.w3.org/1999/02/22-rdf-syntax-ns#" xmlns:svg="http://www.w3.org/2000/svg" xmlns="http://www.w3.org/2000/svg" xmlns:xlink="http://www.w3.org/1999/xlink" id="svg96737" viewBox="0 0 1024 768" height="768px" width="1024px" version="1.1">
  <metadata id="metadata96743">
    <rdf:rdf>
      <cc:work rdf:about="">
        <dc:format>image/svg+xml</dc:format>
        <dc:type rdf:resource="http://purl.org/dc/dcmitype/StillImage"></dc:type>
      </cc:work>
    </rdf:rdf>
  </metadata>
  <defs id="defs96741"></defs>
  <linearGradient spreadMethod="pad" y2="30%" x2="-10%" y1="120%" x1="30%" id="3d_gradient2-logo-d9e6bdc2-c35d-479b-af69-fdcba91d0b82">
    <stop id="stop96718" stop-opacity="1" stop-color="#ffffff" offset="0%"></stop>
    <stop id="stop96720" stop-opacity="1" stop-color="#000000" offset="100%"></stop>
  </linearGradient>
  <linearGradient gradientTransform="rotate(-30)" spreadMethod="pad" y2="30%" x2="-10%" y1="120%" x1="30%" id="3d_gradient3-logo-d9e6bdc2-c35d-479b-af69-fdcba91d0b82">
    <stop id="stop96723" stop-opacity="1" stop-color="#ffffff" offset="0%"></stop>
    <stop id="stop96725" stop-opacity="1" stop-color="#cccccc" offset="50%"></stop>
    <stop id="stop96727" stop-opacity="1" stop-color="#000000" offset="100%"></stop>
  </linearGradient>
  <g id="logo-group">
    <image xlink:href="" id="container" x="272" y="144" width="480" height="480" style="display: none;" transform="translate(0 0)"></image>
    <g id="logo-center" transform="translate(1.1368683772161603e-13 0)">
      <image xlink:href="" id="icon_container" x="0" y="0" style="display: none;"></image>
      <g id="slogan" style="font-style:oblique;font-weight:normal;font-size:32px;line-height:1;font-family:Lato;font-variant-ligatures:none;text-align:center;text-anchor:middle" transform="translate(0 0)"></g>
      <g id="title" style="font-style:normal;font-weight:800;font-size:72px;line-height:1;font-family:'Montserrat ExtraBold Alt1';font-variant-ligatures:none;text-align:center;text-anchor:middle" transform="translate(0 0)">
        <path id="path96746" style="font-style:normal;font-weight:800;font-size:72px;line-height:1;font-family:'Montserrat ExtraBold Alt1';font-variant-ligatures:none;text-align:center;text-anchor:middle" d="m 343.36813,0 h 14.25599 v -17.28 h 23.832 v -11.016 h -38.08799 z m 0,-50.4 v 11.016 h 38.08799 V -50.4 Z" stroke-width="0" stroke-linejoin="miter" stroke-miterlimit="2" fill="#030303" stroke="#030303" transform="translate(0 318.628) translate(242.81188795000003 29.336000000000013) scale(1.43) translate(-343.36813 50.4)"></path>
        <path id="path96748" style="font-style:normal;font-weight:800;font-size:72px;line-height:1;font-family:'Montserrat ExtraBold Alt1';font-variant-ligatures:none;text-align:center;text-anchor:middle" d="m 417.833,-50.4 h -14.04 L 381.545,0 h 14.544 l 3.96,-9.792 4.176,-10.512 6.48,-16.128 6.48,16.128 4.176,10.512 3.96,9.792 h 14.832 z" stroke-width="0" stroke-linejoin="miter" stroke-miterlimit="2" fill="#1d0308" stroke="#1d0308" transform="translate(0 318.628) translate(305.98481205 29.336000000000013) scale(1.43) translate(-381.545 50.4)"></path>
        <path id="path96750" style="font-style:normal;font-weight:800;font-size:72px;line-height:1;font-family:'Montserrat ExtraBold Alt1';font-variant-ligatures:none;text-align:center;text-anchor:middle" d="m 450.02825,-0.504 c 3.816,1.008 7.776,1.512 11.88,1.512 4.752,0 8.856,-0.72 12.24,-2.16 3.312,-1.44 5.832,-3.456 7.56,-5.904 1.656,-2.448 2.52,-5.184 2.52,-8.208 0,-3.456 -0.936,-6.264 -2.808,-8.28 -1.872,-2.016 -4.032,-3.528 -6.552,-4.464 -2.52,-0.936 -5.688,-1.8 -9.504,-2.664 -3.456,-0.72 -5.904,-1.368 -7.416,-2.088 -1.584,-0.648 -2.304,-1.656 -2.304,-3.024 0,-1.296 0.648,-2.376 1.944,-3.24 1.296,-0.864 3.312,-1.296 6.192,-1.296 4.464,0 9.144,1.296 13.968,3.888 l 4.392,-10.584 c -2.448,-1.44 -5.328,-2.52 -8.496,-3.24 -3.24,-0.72 -6.48,-1.152 -9.792,-1.152 -4.896,0 -9,0.72 -12.312,2.16 -3.312,1.44 -5.832,3.456 -7.488,5.904 -1.728,2.448 -2.52,5.256 -2.52,8.28 0,3.528 0.864,6.336 2.736,8.352 1.8,2.088 3.96,3.6 6.552,4.536 2.52,0.936 5.688,1.8 9.504,2.592 3.456,0.792 5.904,1.512 7.488,2.232 1.584,0.72 2.376,1.728 2.376,3.168 0,2.736 -2.736,4.104 -8.208,4.104 -2.88,0 -5.832,-0.432 -8.784,-1.368 -3.024,-0.864 -5.616,-2.088 -7.848,-3.6 l -4.68,10.512 c 2.376,1.728 5.472,3.024 9.36,4.032 z" stroke-width="0" stroke-linejoin="miter" stroke-miterlimit="2" fill="#37030d" stroke="#37030d" transform="translate(0 318.628) translate(399.11105955 27.89456) scale(1.43) translate(-440.66825 51.408)"></path>
        <path id="path96752" style="font-style:normal;font-weight:800;font-size:72px;line-height:1;font-family:'Montserrat ExtraBold Alt1';font-variant-ligatures:none;text-align:center;text-anchor:middle" d="M 500.768,-39.096 V 0 h 14.256 v -39.096 h 15.408 V -50.4 h -45.144 v 11.304 z" stroke-width="0" stroke-linejoin="miter" stroke-miterlimit="2" fill="#520312" stroke="#520312" transform="translate(0 318.628) translate(471.49730205 29.336000000000013) scale(1.43) translate(-485.288 50.4)"></path>
        <path id="path96754" style="font-style:normal;font-weight:800;font-size:72px;line-height:1;font-family:'Montserrat ExtraBold Alt1';font-variant-ligatures:none;text-align:center;text-anchor:middle" d="m 575.70312,-50.4 h -39.96 v 11.016 h 39.96 z m 0,19.512 h -39.96 v 10.656 h 39.96 z m -39.96,19.872 V 0 h 39.96 v -11.016 z" stroke-width="0" stroke-linejoin="miter" stroke-miterlimit="2" fill="#6c0316" stroke="#6c0316" transform="translate(0 318.628) translate(552.2281236499998 29.336000000000013) scale(1.43) translate(-535.74312 50.4)"></path>
        <path id="path96756" style="font-style:normal;font-weight:800;font-size:72px;line-height:1;font-family:'Montserrat ExtraBold Alt1';font-variant-ligatures:none;text-align:center;text-anchor:middle" d="m 619.68612,-15.84 c 3.096,-1.512 5.54401,-3.6 7.272,-6.336 1.728,-2.736 2.592,-5.904 2.592,-9.576 0,-3.744 -0.93599,-7.056 -2.736,-9.864 -1.87199,-2.808 -4.46399,-4.968 -7.77599,-6.48 -3.384,-1.512 -7.34401,-2.304 -11.88,-2.304 h -23.04001 v 11.232 h 22.176 c 2.88,0 5.112,0.648 6.62401,1.944 1.43999,1.296 2.23199,3.168 2.23199,5.472 0,2.376 -0.792,4.176 -2.23199,5.472 -1.51201,1.296 -3.74401,1.872 -6.62401,1.872 h -22.176 V 0 h 14.25601 v -13.392 h 7.77599 L 615.29412,0 h 15.26401 z" stroke-width="0" stroke-linejoin="miter" stroke-miterlimit="2" fill="#86031b" stroke="#86031b" transform="translate(0 318.628) translate(629.9843736499997 29.336000000000013) scale(1.43) translate(-584.11812 50.4)"></path>
        <path id="path96758" style="font-style:normal;font-weight:800;font-size:72px;line-height:1;font-family:'Montserrat ExtraBold Alt1';font-variant-ligatures:none;text-align:center;text-anchor:middle" d="m 672.983,-15.84 c 3.096,-1.512 5.544,-3.6 7.272,-6.336 1.728,-2.736 2.592,-5.904 2.592,-9.576 0,-3.744 -0.936,-7.056 -2.736,-9.864 -1.872,-2.808 -4.464,-4.968 -7.776,-6.48 -3.384,-1.512 -7.344,-2.304 -11.88,-2.304 h -23.04 v 11.232 h 22.176 c 2.88,0 5.112,0.648 6.624,1.944 1.44,1.296 2.232,3.168 2.232,5.472 0,2.376 -0.792,4.176 -2.232,5.472 -1.512,1.296 -3.744,1.872 -6.624,1.872 H 637.415 V 0 h 14.256 v -13.392 h 7.776 L 668.591,0 h 15.264 z" stroke-width="0" stroke-linejoin="miter" stroke-miterlimit="2" fill="#a00320" stroke="#a00320" transform="translate(0 318.628) translate(714.7789120499997 29.336000000000013) scale(1.43) translate(-637.415 50.4)"></path>
      </g>
      <image xlink:href="" id="icon" x="0" y="0" style="display: none;"></image>
    </g>
  </g>
</svg>